# xmcd CD database file
#
# Track frame offsets:
#	150
#	13954
#	31945
#	45519
#	67010
#	81365
#	94540
#	110915
#	125714
#	142394
#
# Disc length: 2154 seconds
#
# Revision: 4
# Processed by: cddbd v1.5.2PL0 Copyright (c) Steve Scherf et al.
# Submitted via: CDex 1.70beta2
#
DISCID=9408680a
DTITLE=P.F.Sloan  -  - Measure Of Pleasure
DYEAR=1968
DGENRE=Nashville Sound
TTITLE0=One Of A Kind (P.F.Sloan)
TTITLE1=New Design (P.F.Sloan)
TTITLE2=(What Did She Mean When She Said) Good Luck (P.F.Sloan)
TTITLE3=How Can I Be Sure (P.F.Sloan)
TTITLE4=Star Gazin' (P.F.Sloan)
TTITLE5=Miss Charlotte (P.F.Sloan)
TTITLE6=Champagne (P.F.Sloan)
TTITLE7=And The Boundries Inbetween (P.F.Sloan)
TTITLE8=Above And Beyond The Call Of Duty (P.F.Sloan)
TTITLE9=Country Woman (Can You Dig It All Night) (P.F.Sloan)
EXTD=YEAR: 1968
EXTT0=
EXTT1=
EXTT2=
EXTT3=
EXTT4=
EXTT5=
EXTT6=
EXTT7=
EXTT8=
EXTT9=
PLAYORDER=
